<svg width="24" height="22" viewBox="0 0 24 22" fill="none" xmlns="http://www.w3.org/2000/svg">
<g >
<g clip-path="url(#clip0)">
<path d="M19.9879 4.93806C18.4846 3.45619 16.0383 3.45619 14.5346 4.93806L10.4504 8.96397C10.1505 9.25934 9.90153 9.60202 9.71363 9.97818L9.67672 10.0001L9.66097 10.0105C9.44346 10.1515 9.24093 10.3142 9.05649 10.496L4.97234 14.522C4.61353 14.876 4.3287 15.2973 4.13431 15.7617C3.93993 16.226 3.83984 16.7241 3.83984 17.2272C3.83984 17.7303 3.93993 18.2284 4.13431 18.6927C4.3287 19.1571 4.61353 19.5784 4.97234 19.9324C5.69979 20.6447 6.67899 21.0439 7.69901 21.0439C8.71903 21.0439 9.69823 20.6447 10.4257 19.9324L14.5094 15.907C14.8091 15.6123 15.0579 15.2704 15.2457 14.895L15.2948 14.8636L15.2997 14.8605C15.517 14.7194 15.7193 14.5569 15.9038 14.3753L19.9879 10.3494C20.3467 9.99533 20.6315 9.57393 20.8258 9.10957C21.0202 8.6452 21.1203 8.14708 21.1203 7.64397C21.1203 7.14086 21.0202 6.64273 20.8258 6.17837C20.6315 5.714 20.3467 5.2926 19.9879 4.9385V4.93806ZM10.4504 14.3753C10.6689 14.5907 10.9125 14.7792 11.176 14.9367L8.28908 17.7829C7.97402 18.0928 7.4231 18.0932 7.11074 17.7829L7.10579 17.7785C6.95902 17.6313 6.87691 17.4322 6.8775 17.2247C6.87809 17.0173 6.96133 16.8186 7.10894 16.6723L9.99224 13.8301C10.1278 14.0255 10.2812 14.208 10.4504 14.3753ZM9.71318 19.2177C9.17585 19.7441 8.4524 20.0391 7.69879 20.0391C6.94517 20.0391 6.22172 19.7441 5.68439 19.2177C5.42086 18.9574 5.21169 18.6477 5.06894 18.3064C4.92619 17.9652 4.8527 17.5991 4.8527 17.2294C4.8527 16.8597 4.92619 16.4937 5.06894 16.1524C5.21169 15.8112 5.42086 15.5015 5.68439 15.2411L9.31845 11.6591V11.6717C9.31798 12.0831 9.3844 12.492 9.51514 12.8823L6.39644 15.9563C6.22855 16.1222 6.09517 16.3195 6.00395 16.5368C5.91272 16.7542 5.86544 16.9873 5.86481 17.2229C5.86419 17.4585 5.91022 17.6918 6.00029 17.9097C6.09036 18.1275 6.22268 18.3255 6.38969 18.4923L6.39644 18.499C6.74664 18.8339 7.21331 19.021 7.69879 19.021C8.18426 19.021 8.65093 18.8339 9.00113 18.499L12.3939 15.1546L12.3975 15.1515L13.0853 14.4731C13.2532 14.3072 13.3865 14.1099 13.4778 13.8926C13.569 13.6752 13.6163 13.4421 13.6169 13.2065C13.6175 12.9709 13.5715 12.7375 13.4814 12.5197C13.3914 12.3019 13.259 12.1039 13.092 11.9371L13.0853 11.9304C12.885 11.734 12.6417 11.5865 12.3746 11.4995C12.4068 11.3537 12.4806 11.2203 12.587 11.1152L13.0322 10.6767C13.4384 10.8705 13.792 11.1588 14.0631 11.5171C14.3341 11.8755 14.5148 12.2935 14.5898 12.7359C14.6648 13.1784 14.6319 13.6323 14.494 14.0595C14.3561 14.4866 14.1172 14.8745 13.7973 15.1905L9.71318 19.2177ZM14.5094 10.496C14.2911 10.2812 14.0476 10.0934 13.7843 9.93648L16.6712 7.09068C16.9862 6.7813 17.5372 6.7813 17.8504 7.09068L17.8545 7.09427C18.0012 7.2414 18.0834 7.44056 18.0828 7.64798C18.0822 7.8554 17.9989 8.05409 17.8513 8.20039L14.968 11.0426C14.8323 10.8475 14.6788 10.6653 14.5094 10.4983V10.496ZM19.2754 9.63204L15.6418 13.2141V13.2015C15.6421 12.7901 15.5756 12.3813 15.4451 11.9909L18.5652 8.91509C18.7329 8.74892 18.8661 8.55145 18.9571 8.33398C19.0482 8.1165 19.0954 7.88328 19.0959 7.64764C19.0964 7.412 19.0504 7.17857 18.9603 6.96068C18.8702 6.74279 18.738 6.54471 18.571 6.37777L18.5652 6.37194C17.8576 5.67697 16.6649 5.67697 15.9591 6.37194L11.875 10.3979C11.7071 10.5638 11.5737 10.761 11.4825 10.9784C11.3913 11.1957 11.344 11.4289 11.3434 11.6644C11.3427 11.9 11.3888 12.1334 11.4788 12.3512C11.5689 12.5691 11.7012 12.767 11.8682 12.9338L11.875 12.941C12.0751 13.1372 12.3183 13.2846 12.5852 13.3714C12.5533 13.5173 12.4796 13.6509 12.3732 13.7561L11.9276 14.1946C11.5213 14.0009 11.1677 13.7127 10.8965 13.3544C10.6254 12.996 10.4447 12.578 10.3697 12.1355C10.2947 11.693 10.3276 11.2391 10.4655 10.8119C10.6035 10.3847 10.8425 9.99681 11.1625 9.68091L15.2466 5.655C15.7839 5.12875 16.5073 4.83386 17.2608 4.83386C18.0143 4.83386 18.7377 5.12875 19.275 5.655C19.5387 5.91526 19.748 6.22499 19.8909 6.5663C20.0337 6.90761 20.1073 7.27373 20.1073 7.64352C20.1073 8.01331 20.0337 8.37943 19.8909 8.72074C19.748 9.06205 19.5387 9.37178 19.275 9.63204H19.2754Z" fill="white"/>
</g>
</g>
<defs>
<clipPath id="clip0">
<rect width="17.28" height="17.2174" fill="white" transform="translate(3.83984 3.82617)"/>
</clipPath>
</defs>
</svg>
