<svg xmlns="http://www.w3.org/2000/svg" width="16" height="16" viewBox="0 0 16 16" fill="none">
<path d="M9.125 10.8125H7.625C7.41406 10.8125 7.25 11 7.25 11.1875V11.5625C7.25 11.7734 7.41406 11.9375 7.625 11.9375H9.125C9.3125 11.9375 9.5 11.7734 9.5 11.5625V11.1875C9.5 11 9.3125 10.8125 9.125 10.8125ZM5.84375 11H4.8125V3.125C4.8125 2.9375 4.625 2.75 4.4375 2.75H4.0625C3.85156 2.75 3.6875 2.9375 3.6875 3.125V11H2.65625H2.63281C2.49219 11 2.35156 11.1406 2.35156 11.2812C2.35156 11.3516 2.39844 11.4453 2.44531 11.4922L4.03906 13.1797C4.08594 13.2266 4.17969 13.25 4.22656 13.25C4.29688 13.25 4.39062 13.2266 4.4375 13.1797L6.03125 11.4922C6.07812 11.4453 6.10156 11.3516 6.10156 11.2812C6.10156 11.1406 5.98438 11.0234 5.84375 11ZM12.125 6.3125H7.625C7.41406 6.3125 7.25 6.5 7.25 6.6875V7.0625C7.25 7.27344 7.41406 7.4375 7.625 7.4375H12.125C12.3125 7.4375 12.5 7.27344 12.5 7.0625V6.6875C12.5 6.5 12.3125 6.3125 12.125 6.3125ZM13.625 4.0625H7.625C7.41406 4.0625 7.25 4.25 7.25 4.4375V4.8125C7.25 5.02344 7.41406 5.1875 7.625 5.1875H13.625C13.8125 5.1875 14 5.02344 14 4.8125V4.4375C14 4.25 13.8125 4.0625 13.625 4.0625ZM10.625 8.5625H7.625C7.41406 8.5625 7.25 8.75 7.25 8.9375V9.3125C7.25 9.52344 7.41406 9.6875 7.625 9.6875H10.625C10.8125 9.6875 11 9.52344 11 9.3125V8.9375C11 8.75 10.8125 8.5625 10.625 8.5625Z" fill="#00A19C"/>
</svg>